<svg version="1.1" id="Layer_1" xmlns="http://www.w3.org/2000/svg" xmlns:xlink="http://www.w3.org/1999/xlink" x="0px" y="0px"
	 viewBox="0 0 280 280" style="enable-background:new 0 0 280 280;" xml:space="preserve">
<style type="text/css">
	.st4{fill:#CCCCCC;}
</style>
<g>
	<g>
		<g>
			<g>
				<g>
					<rect x="138.59" y="8.16" class="st4" width="2.82" height="10.71"/>
				</g>
			</g>
			<g>
				<g>
					<rect x="138.59" class="st4" width="2.82" height="18.87"/>
				</g>
			</g>
		</g>
		<g>
			<g>
				<g>

						<rect x="75.35" y="25.11" transform="matrix(0.866 -0.5001 0.5001 0.866 -4.9455 42.4684)" class="st4" width="2.82" height="10.71"/>
				</g>
			</g>
			<g>
				<g>

						<rect x="73.31" y="17.49" transform="matrix(0.866 -0.5001 0.5001 0.866 -3.4518 40.9758)" class="st4" width="2.82" height="18.87"/>
				</g>
			</g>
		</g>
		<g>
			<g>
				<g>

						<rect x="29.05" y="71.4" transform="matrix(0.5001 -0.866 0.866 0.5001 -51.2422 64.7495)" class="st4" width="2.82" height="10.71"/>
				</g>
				<g>

						<rect x="248.13" y="197.89" transform="matrix(0.4998 -0.8661 0.8661 0.4998 -51.2152 317.8001)" class="st4" width="2.82" height="10.71"/>
				</g>
			</g>
			<g>
				<g>

						<rect x="25.52" y="65.28" transform="matrix(0.5001 -0.866 0.866 0.5001 -51.2411 60.6682)" class="st4" width="2.82" height="18.87"/>
				</g>
				<g>

						<rect x="251.66" y="195.85" transform="matrix(0.4999 -0.8661 0.8661 0.4999 -51.2353 321.8292)" class="st4" width="2.82" height="18.87"/>
				</g>
			</g>
		</g>
		<g>
			<g>
				<g>
					<rect x="8.16" y="138.59" class="st4" width="10.71" height="2.82"/>
				</g>
				<g>
					<rect x="261.13" y="138.59" class="st4" width="10.71" height="2.82"/>
				</g>
			</g>
			<g>
				<g>
					<rect y="138.59" class="st4" width="18.87" height="2.82"/>
				</g>
				<g>
					<rect x="261.13" y="138.59" class="st4" width="18.87" height="2.82"/>
				</g>
			</g>
		</g>
		<g>
			<g>
				<g>

						<rect x="25.11" y="201.83" transform="matrix(0.8658 -0.5003 0.5003 0.8658 -97.6033 42.5101)" class="st4" width="10.71" height="2.82"/>
				</g>
				<g>

						<rect x="244.18" y="75.35" transform="matrix(0.8658 -0.5003 0.5003 0.8658 -4.9238 135.1533)" class="st4" width="10.71" height="2.82"/>
				</g>
			</g>
			<g>
				<g>

						<rect x="17.49" y="203.87" transform="matrix(0.8658 -0.5003 0.5003 0.8658 -99.0984 41.0161)" class="st4" width="18.87" height="2.82"/>
				</g>
				<g>

						<rect x="243.63" y="73.31" transform="matrix(0.8658 -0.5003 0.5003 0.8658 -3.4287 136.6473)" class="st4" width="18.87" height="2.82"/>
				</g>
			</g>
		</g>
		<g>
			<g>
				<g>

						<rect x="197.89" y="29.05" transform="matrix(0.5003 -0.8658 0.8658 0.5003 75.1774 191.1918)" class="st4" width="10.71" height="2.82"/>
				</g>
			</g>
			<g>
				<g>

						<rect x="195.85" y="25.52" transform="matrix(0.5003 -0.8658 0.8658 0.5003 79.2562 191.1932)" class="st4" width="18.87" height="2.82"/>
				</g>
			</g>
		</g>
		<g>
			<g>
				<g>
					<rect x="138.59" y="8.16" class="st4" width="2.82" height="10.71"/>
				</g>
			</g>
			<g>
				<g>
					<rect x="138.59" y="5.44" class="st4" width="2.82" height="13.43"/>
				</g>
			</g>
		</g>
		<g>
			<g>
				<g>

						<rect x="127.57" y="8.64" transform="matrix(0.9962 -0.0872 0.0872 0.9962 -0.7291 11.2937)" class="st4" width="2.82" height="10.71"/>
				</g>
			</g>
			<g>
				<g>

						<rect x="127.45" y="5.93" transform="matrix(0.9962 -0.0871 0.0871 0.9962 -0.6114 11.276)" class="st4" width="2.82" height="13.43"/>
				</g>
			</g>
		</g>
		<g>
			<g>
				<g>

						<rect x="116.63" y="10.08" transform="matrix(0.9848 -0.1735 0.1735 0.9848 -0.888 20.7158)" class="st4" width="2.82" height="10.71"/>
				</g>
			</g>
			<g>
				<g>

						<rect x="116.39" y="7.38" transform="matrix(0.9848 -0.1736 0.1736 0.9848 -0.6584 20.6678)" class="st4" width="2.82" height="13.43"/>
				</g>
			</g>
		</g>
		<g>
			<g>
				<g>

						<rect x="105.85" y="12.47" transform="matrix(0.9659 -0.2589 0.2589 0.9659 -0.9576 28.3773)" class="st4" width="2.82" height="10.71"/>
				</g>
			</g>
			<g>
				<g>
					<polygon class="st4" points="107.29,23.36 103.81,10.39 106.54,9.66 110.01,22.63 					"/>
				</g>
			</g>
		</g>
		<g>
			<g>
				<g>

						<rect x="95.33" y="15.79" transform="matrix(0.9396 -0.3422 0.3422 0.9396 -1.395 34.3782)" class="st4" width="2.82" height="10.71"/>
				</g>
			</g>
			<g>
				<g>

						<rect x="94.86" y="13.15" transform="matrix(0.9396 -0.3422 0.3422 0.9396 -0.9857 34.143)" class="st4" width="2.82" height="13.43"/>
				</g>
			</g>
		</g>
		<g>
			<g>
				<g>

						<rect x="85.14" y="20.01" transform="matrix(0.9064 -0.4224 0.4224 0.9064 -2.6153 38.927)" class="st4" width="2.82" height="10.71"/>
				</g>
			</g>
			<g>
				<g>

						<rect x="84.56" y="17.42" transform="matrix(0.9064 -0.4225 0.4225 0.9064 -2.1461 38.5843)" class="st4" width="2.82" height="13.43"/>
				</g>
			</g>
		</g>
		<g>
			<g>
				<g>

						<rect x="75.35" y="25.11" transform="matrix(0.866 -0.5001 0.5001 0.866 -4.9455 42.4684)" class="st4" width="2.82" height="10.71"/>
				</g>
			</g>
			<g>
				<g>
					<rect x="74.67" y="22.57" transform="matrix(0.866 -0.5 0.5 0.866 -4.448 41.9655)" class="st4" width="2.82" height="13.43"/>
				</g>
			</g>
		</g>
		<g>
			<g>
				<g>

						<rect x="66.04" y="31.03" transform="matrix(0.8191 -0.5736 0.5736 0.8191 -8.6734 45.2721)" class="st4" width="2.82" height="10.71"/>
				</g>
			</g>
			<g>
				<g>

						<rect x="65.26" y="28.56" transform="matrix(0.8191 -0.5737 0.5737 0.8191 -8.1749 44.629)" class="st4" width="2.82" height="13.43"/>
				</g>
			</g>
		</g>
		<g>
			<g>
				<g>

						<rect x="57.29" y="37.75" transform="matrix(0.7661 -0.6427 0.6427 0.7661 -13.9765 47.8067)" class="st4" width="2.82" height="10.71"/>
				</g>
			</g>
			<g>
				<g>

						<rect x="56.41" y="35.35" transform="matrix(0.766 -0.6428 0.6428 0.766 -13.5113 47.0099)" class="st4" width="2.82" height="13.43"/>
				</g>
			</g>
		</g>
		<g>
			<g>
				<g>

						<rect x="49.15" y="45.21" transform="matrix(0.7071 -0.7071 0.7071 0.7071 -20.9431 50.5611)" class="st4" width="2.82" height="10.71"/>
				</g>
			</g>
			<g>
				<g>

						<rect x="48.19" y="42.89" transform="matrix(0.7071 -0.7071 0.7071 0.7071 -20.545 49.6)" class="st4" width="2.82" height="13.43"/>
				</g>
			</g>
		</g>
		<g>
			<g>
				<g>

						<rect x="41.7" y="53.34" transform="matrix(0.6427 -0.7661 0.7661 0.6427 -29.5661 53.9957)" class="st4" width="2.82" height="10.71"/>
				</g>
			</g>
			<g>
				<g>

						<rect x="40.66" y="51.11" transform="matrix(0.6428 -0.766 0.766 0.6428 -29.2676 52.8772)" class="st4" width="2.82" height="13.43"/>
				</g>
			</g>
		</g>
		<g>
			<g>
				<g>

						<rect x="34.98" y="62.1" transform="matrix(0.5736 -0.8191 0.8191 0.5736 -39.7358 58.5696)" class="st4" width="2.82" height="10.71"/>
				</g>
			</g>
			<g>
				<g>

						<rect x="33.87" y="59.96" transform="matrix(0.5737 -0.8191 0.8191 0.5737 -39.5704 57.3179)" class="st4" width="2.82" height="13.43"/>
				</g>
			</g>
		</g>
		<g>
			<g>
				<g>

						<rect x="29.05" y="71.4" transform="matrix(0.5001 -0.866 0.866 0.5001 -51.2422 64.7495)" class="st4" width="2.82" height="10.71"/>
				</g>
				<g>

						<rect x="249.31" y="197.21" transform="matrix(0.4999 -0.8661 0.8661 0.4999 -51.2287 319.1256)" class="st4" width="2.82" height="13.43"/>
				</g>
			</g>
			<g>
				<g>

						<rect x="27.87" y="69.36" transform="matrix(0.5 -0.866 0.866 0.5 -51.2431 63.3936)" class="st4" width="2.82" height="13.43"/>
				</g>
				<g>

						<rect x="246.95" y="198.57" transform="matrix(0.4998 -0.8662 0.8662 0.4998 -51.2134 316.4449)" class="st4" width="2.82" height="7.99"/>
				</g>
			</g>
		</g>
		<g>
			<g>
				<g>

						<rect x="23.96" y="81.19" transform="matrix(0.4224 -0.9064 0.9064 0.4224 -63.794 72.9835)" class="st4" width="2.82" height="10.71"/>
				</g>
				<g>

						<rect x="254.46" y="187.31" transform="matrix(0.4226 -0.9063 0.9063 0.4226 -28.1153 343.9251)" class="st4" width="2.82" height="13.43"/>
				</g>
			</g>
			<g>
				<g>

						<rect x="22.72" y="79.25" transform="matrix(0.4225 -0.9064 0.9064 0.4225 -63.9816 71.5183)" class="st4" width="2.82" height="13.43"/>
				</g>
				<g>

						<rect x="251.99" y="188.88" transform="matrix(0.4225 -0.9064 0.9064 0.4225 -28.4805 341.0575)" class="st4" width="2.82" height="7.99"/>
				</g>
			</g>
		</g>
		<g>
			<g>
				<g>

						<rect x="19.73" y="91.38" transform="matrix(0.3422 -0.9396 0.9396 0.3422 -76.9915 83.504)" class="st4" width="2.82" height="10.71"/>
				</g>
				<g>

						<rect x="258.72" y="177.01" transform="matrix(0.342 -0.9397 0.9397 0.342 -1.4803 365.3352)" class="st4" width="2.82" height="13.43"/>
				</g>
			</g>
			<g>
				<g>

						<rect x="18.46" y="89.56" transform="matrix(0.3422 -0.9396 0.9396 0.3422 -77.3946 81.9961)" class="st4" width="2.82" height="13.43"/>
				</g>
				<g>

						<rect x="256.17" y="178.8" transform="matrix(0.3419 -0.9398 0.9398 0.3419 -2.258 362.3635)" class="st4" width="2.82" height="7.99"/>
				</g>
			</g>
		</g>
		<g>
			<g>
				<g>

						<rect x="16.41" y="101.91" transform="matrix(0.2589 -0.9659 0.9659 0.2589 -90.3951 96.7092)" class="st4" width="2.82" height="10.71"/>
				</g>
				<g>

						<rect x="262.07" y="166.37" transform="matrix(0.259 -0.9659 0.9659 0.259 28.0724 382.7654)" class="st4" width="2.82" height="13.43"/>
				</g>
			</g>
			<g>
				<g>
					<polygon class="st4" points="22.63,110.01 9.66,106.54 10.39,103.81 23.36,107.29 					"/>
				</g>
				<g>

						<rect x="259.45" y="168.39" transform="matrix(0.2588 -0.9659 0.9659 0.2588 26.8391 379.7423)" class="st4" width="2.82" height="7.99"/>
				</g>
			</g>
		</g>
		<g>
			<g>
				<g>

						<rect x="14.03" y="112.68" transform="matrix(0.1735 -0.9848 0.9848 0.1735 -103.4863 112.7562)" class="st4" width="2.82" height="10.71"/>
				</g>
				<g>

						<rect x="264.49" y="155.48" transform="matrix(0.1737 -0.9848 0.9848 0.1737 59.9886 395.8911)" class="st4" width="2.82" height="13.43"/>
				</g>
			</g>
			<g>
				<g>

						<rect x="12.69" y="111.08" transform="matrix(0.1736 -0.9848 0.9848 0.1736 -104.3596 111.2275)" class="st4" width="2.82" height="13.43"/>
				</g>
				<g>

						<rect x="261.81" y="157.73" transform="matrix(0.1737 -0.9848 0.9848 0.1737 58.226 392.85)" class="st4" width="2.82" height="7.99"/>
				</g>
			</g>
		</g>
		<g>
			<g>
				<g>

						<rect x="12.59" y="123.62" transform="matrix(0.0872 -0.9962 0.9962 0.0872 -115.7088 131.6791)" class="st4" width="2.82" height="10.71"/>
				</g>
				<g>

						<rect x="265.95" y="144.43" transform="matrix(0.0871 -0.9962 0.9962 0.0871 93.4925 404.3113)" class="st4" width="2.82" height="13.43"/>
				</g>
			</g>
			<g>
				<g>

						<rect x="11.23" y="122.14" transform="matrix(0.0871 -0.9962 0.9962 0.0871 -116.8276 130.2235)" class="st4" width="2.82" height="13.43"/>
				</g>
				<g>

						<rect x="263.24" y="146.91" transform="matrix(0.0872 -0.9962 0.9962 0.0872 91.2432 401.3876)" class="st4" width="2.82" height="7.99"/>
				</g>
			</g>
		</g>
		<g>
			<g>
				<g>

						<rect x="8.64" y="149.61" transform="matrix(0.9961 -0.0879 0.0879 0.9961 -13.2199 1.8147)" class="st4" width="10.71" height="2.82"/>
				</g>
				<g>

						<rect x="260.64" y="127.45" transform="matrix(0.9961 -0.0879 0.0879 0.9961 -10.2911 23.9976)" class="st4" width="13.43" height="2.82"/>
				</g>
			</g>
			<g>
				<g>

						<rect x="5.93" y="149.73" transform="matrix(0.9961 -0.0879 0.0879 0.9961 -13.2355 1.6961)" class="st4" width="13.43" height="2.82"/>
				</g>
				<g>

						<rect x="260.65" y="127.68" transform="matrix(0.9961 -0.0879 0.0879 0.9961 -10.3224 23.7603)" class="st4" width="7.99" height="2.82"/>
				</g>
			</g>
		</g>
		<g>
			<g>
				<g>

						<rect x="10.08" y="160.55" transform="matrix(0.9848 -0.1739 0.1739 0.9848 -27.9295 5.1521)" class="st4" width="10.71" height="2.82"/>
				</g>
				<g>

						<rect x="259.19" y="116.39" transform="matrix(0.9848 -0.1739 0.1739 0.9848 -16.4334 48.0342)" class="st4" width="13.43" height="2.82"/>
				</g>
			</g>
			<g>
				<g>

						<rect x="7.38" y="160.79" transform="matrix(0.9848 -0.1739 0.1739 0.9848 -27.9911 4.9227)" class="st4" width="13.43" height="2.82"/>
				</g>
				<g>

						<rect x="259.23" y="116.86" transform="matrix(0.9848 -0.1739 0.1739 0.9848 -16.5564 47.5755)" class="st4" width="7.99" height="2.82"/>
				</g>
			</g>
		</g>
		<g>
			<g>
				<g>

						<rect x="12.47" y="171.32" transform="matrix(0.9657 -0.2595 0.2595 0.9657 -44.2115 10.5418)" class="st4" width="10.71" height="2.82"/>
				</g>
				<g>
					<polygon class="st4" points="257.36,110.01 256.64,107.29 269.61,103.81 270.34,106.54 					"/>
				</g>
			</g>
			<g>
				<g>

						<rect x="9.8" y="171.68" transform="matrix(0.9657 -0.2595 0.2595 0.9657 -44.3479 10.213)" class="st4" width="13.43" height="2.82"/>
				</g>
				<g>

						<rect x="256.86" y="106.2" transform="matrix(0.9657 -0.2595 0.2595 0.9657 -18.9891 71.3748)" class="st4" width="7.99" height="2.82"/>
				</g>
			</g>
		</g>
		<g>
			<g>
				<g>

						<rect x="15.79" y="181.85" transform="matrix(0.9397 -0.3419 0.3419 0.9397 -61.3822 18.2726)" class="st4" width="10.71" height="2.82"/>
				</g>
				<g>

						<rect x="253.42" y="94.86" transform="matrix(0.9397 -0.3419 0.3419 0.9397 -17.2396 94.741)" class="st4" width="13.43" height="2.82"/>
				</g>
			</g>
			<g>
				<g>

						<rect x="13.15" y="182.32" transform="matrix(0.9397 -0.3419 0.3419 0.9397 -61.6183 17.8638)" class="st4" width="13.43" height="2.82"/>
				</g>
				<g>

						<rect x="253.58" y="95.8" transform="matrix(0.9397 -0.3419 0.3419 0.9397 -17.7118 93.9233)" class="st4" width="7.99" height="2.82"/>
				</g>
			</g>
		</g>
		<g>
			<g>
				<g>

						<rect x="20.01" y="192.04" transform="matrix(0.9066 -0.422 0.422 0.9066 -79.2737 28.7772)" class="st4" width="10.71" height="2.82"/>
				</g>
				<g>

						<rect x="249.15" y="84.56" transform="matrix(0.9066 -0.422 0.422 0.9066 -12.3791 116.0137)" class="st4" width="13.43" height="2.82"/>
				</g>
			</g>
			<g>
				<g>

						<rect x="17.42" y="192.62" transform="matrix(0.9066 -0.422 0.422 0.9066 -79.6311 28.3108)" class="st4" width="13.43" height="2.82"/>
				</g>
				<g>

						<rect x="249.4" y="85.71" transform="matrix(0.9066 -0.422 0.422 0.9066 -13.0946 115.0809)" class="st4" width="7.99" height="2.82"/>
				</g>
			</g>
		</g>
		<g>
			<g>
				<g>

						<rect x="25.11" y="201.83" transform="matrix(0.8658 -0.5003 0.5003 0.8658 -97.6033 42.5101)" class="st4" width="10.71" height="2.82"/>
				</g>
				<g>

						<rect x="244" y="74.67" transform="matrix(0.8658 -0.5003 0.5003 0.8658 -4.4255 135.651)" class="st4" width="13.43" height="2.82"/>
				</g>
			</g>
			<g>
				<g>

						<rect x="22.57" y="202.51" transform="matrix(0.8658 -0.5003 0.5003 0.8658 -98.1018 42.0117)" class="st4" width="13.43" height="2.82"/>
				</g>
				<g>

						<rect x="244.36" y="76.03" transform="matrix(0.8658 -0.5003 0.5003 0.8658 -5.4223 134.6548)" class="st4" width="7.99" height="2.82"/>
				</g>
			</g>
		</g>
		<g>
			<g>
				<g>

						<rect x="238.01" y="65.26" transform="matrix(0.8186 -0.5744 0.5744 0.8186 6.1008 152.6588)" class="st4" width="13.43" height="2.82"/>
				</g>
			</g>
			<g>
				<g>

						<rect x="238.5" y="66.82" transform="matrix(0.8186 -0.5744 0.5744 0.8186 4.8003 151.6614)" class="st4" width="7.99" height="2.82"/>
				</g>
			</g>
		</g>
		<g>
			<g>
				<g>

						<rect x="231.22" y="56.41" transform="matrix(0.766 -0.6429 0.6429 0.766 18.5106 166.4922)" class="st4" width="13.43" height="2.82"/>
				</g>
			</g>
			<g>
				<g>

						<rect x="231.85" y="58.16" transform="matrix(0.766 -0.6429 0.6429 0.766 16.8985 165.5612)" class="st4" width="7.99" height="2.82"/>
				</g>
			</g>
		</g>
		<g>
			<g>
				<g>

						<rect x="223.68" y="48.19" transform="matrix(0.7071 -0.7071 0.7071 0.7071 32.4097 177.4439)" class="st4" width="13.43" height="2.82"/>
				</g>
			</g>
			<g>
				<g>

						<rect x="224.48" y="50.11" transform="matrix(0.7071 -0.7071 0.7071 0.7071 30.4871 176.6468)" class="st4" width="7.99" height="2.82"/>
				</g>
			</g>
		</g>
		<g>
			<g>
				<g>

						<rect x="215.46" y="40.66" transform="matrix(0.6429 -0.766 0.766 0.6429 47.1243 185.2035)" class="st4" width="13.43" height="2.82"/>
				</g>
			</g>
			<g>
				<g>

						<rect x="216.43" y="42.74" transform="matrix(0.6429 -0.766 0.766 0.6429 44.904 184.6081)" class="st4" width="7.99" height="2.82"/>
				</g>
			</g>
		</g>
		<g>
			<g>
				<g>
					<polygon class="st4" points="210.63,41.59 208.32,39.97 216.02,28.97 218.33,30.58 					"/>
				</g>
			</g>
			<g>
				<g>
					<polygon class="st4" points="210.63,41.59 208.32,39.97 212.9,33.42 215.21,35.04 					"/>
				</g>
			</g>
		</g>
		<g>
			<g>
				<g>

						<rect x="197.21" y="27.87" transform="matrix(0.5003 -0.8658 0.8658 0.5003 76.5378 191.1918)" class="st4" width="13.43" height="2.82"/>
				</g>
			</g>
			<g>
				<g>

						<rect x="198.57" y="30.23" transform="matrix(0.5003 -0.8658 0.8658 0.5003 73.8182 191.1911)" class="st4" width="7.99" height="2.82"/>
				</g>
			</g>
		</g>
		<g>
			<g>
				<g>

						<rect x="187.31" y="22.72" transform="matrix(0.422 -0.9066 0.9066 0.422 90.2635 189.851)" class="st4" width="13.43" height="2.82"/>
				</g>
			</g>
			<g>
				<g>

						<rect x="188.88" y="25.19" transform="matrix(0.422 -0.9066 0.9066 0.422 87.3633 190.234)" class="st4" width="7.99" height="2.82"/>
				</g>
			</g>
		</g>
		<g>
			<g>
				<g>

						<rect x="177.01" y="18.46" transform="matrix(0.3419 -0.9397 0.9397 0.3419 102.2413 185.7259)" class="st4" width="13.43" height="2.82"/>
				</g>
			</g>
			<g>
				<g>

						<rect x="178.8" y="21.01" transform="matrix(0.3419 -0.9397 0.9397 0.3419 99.2271 186.533)" class="st4" width="7.99" height="2.82"/>
				</g>
			</g>
		</g>
		<g>
			<g>
				<g>

						<rect x="166.37" y="15.1" transform="matrix(0.2595 -0.9657 0.9657 0.2595 112.229 179.3856)" class="st4" width="13.43" height="2.82"/>
				</g>
			</g>
			<g>
				<g>

						<rect x="168.39" y="17.73" transform="matrix(0.2595 -0.9657 0.9657 0.2595 109.1698 180.6503)" class="st4" width="7.99" height="2.82"/>
				</g>
			</g>
		</g>
		<g>
			<g>
				<g>

						<rect x="155.48" y="12.69" transform="matrix(0.1739 -0.9848 0.9848 0.1739 120.1108 171.3733)" class="st4" width="13.43" height="2.82"/>
				</g>
			</g>
			<g>
				<g>

						<rect x="157.73" y="15.37" transform="matrix(0.1739 -0.9848 0.9848 0.1739 117.0819 173.1218)" class="st4" width="7.99" height="2.82"/>
				</g>
			</g>
		</g>
		<g>
			<g>
				<g>

						<rect x="144.43" y="11.23" transform="matrix(0.0879 -0.9961 0.9961 0.0879 125.265 162.0878)" class="st4" width="13.43" height="2.82"/>
				</g>
			</g>
			<g>
				<g>

						<rect x="146.91" y="13.94" transform="matrix(0.0879 -0.9961 0.9961 0.0879 122.3496 164.3235)" class="st4" width="7.99" height="2.82"/>
				</g>
			</g>
		</g>
		<g>
			<g>
				<g>

						<rect x="29.05" y="71.4" transform="matrix(0.5001 -0.866 0.866 0.5001 -51.2422 64.7495)" class="st4" width="2.82" height="10.71"/>
				</g>
				<g>

						<rect x="248.13" y="197.89" transform="matrix(0.4998 -0.8661 0.8661 0.4998 -51.2152 317.8001)" class="st4" width="2.82" height="10.71"/>
				</g>
			</g>
			<g>
				<g>

						<rect x="25.52" y="65.28" transform="matrix(0.5001 -0.866 0.866 0.5001 -51.2411 60.6682)" class="st4" width="2.82" height="18.87"/>
				</g>
				<g>

						<rect x="251.66" y="195.85" transform="matrix(0.4999 -0.8661 0.8661 0.4999 -51.2353 321.8292)" class="st4" width="2.82" height="18.87"/>
				</g>
			</g>
		</g>
		<g>
			<g>
				<g>

						<rect x="25.11" y="201.83" transform="matrix(0.8658 -0.5003 0.5003 0.8658 -97.6033 42.5101)" class="st4" width="10.71" height="2.82"/>
				</g>
				<g>

						<rect x="244.18" y="75.35" transform="matrix(0.8658 -0.5003 0.5003 0.8658 -4.9238 135.1533)" class="st4" width="10.71" height="2.82"/>
				</g>
			</g>
			<g>
				<g>

						<rect x="17.49" y="203.87" transform="matrix(0.8658 -0.5003 0.5003 0.8658 -99.0984 41.0161)" class="st4" width="18.87" height="2.82"/>
				</g>
				<g>

						<rect x="243.63" y="73.31" transform="matrix(0.8658 -0.5003 0.5003 0.8658 -3.4287 136.6473)" class="st4" width="18.87" height="2.82"/>
				</g>
			</g>
		</g>
	</g>
	<g>
		<g>
			<g>

					<rect x="252.15" y="228.09" transform="matrix(0.5 -0.866 0.866 0.5 -75.5545 336.4163)" class="st4" width="2.82" height="11.1"/>
			</g>
		</g>
	</g>
	<g>
		<g>
			<g>

					<rect x="20.89" y="232.23" transform="matrix(0.8658 -0.5003 0.5003 0.8658 -113.352 44.5762)" class="st4" width="11.11" height="2.82"/>
			</g>
		</g>
		<g>
			<g>
				<path class="st4" d="M264.99,241.86l-48.93-28.24l1.22-1.3c18.47-19.7,28.65-45.43,28.65-72.45
					c0-58.41-47.52-105.92-105.92-105.92S34.07,81.47,34.07,139.87c0,27.02,10.18,52.75,28.65,72.45l1.22,1.3l-48.93,28.24
					l-1.41-2.44l45.87-26.48c-18.21-20.05-28.21-45.93-28.21-73.07C31.25,79.91,80.04,31.13,140,31.13s108.74,48.78,108.74,108.74
					c0,27.15-10,53.03-28.21,73.07l45.87,26.48L264.99,241.86z"/>
			</g>
		</g>
	</g>
</g>
</svg>
