<?xml version="1.0" encoding="utf-8"?>
<!-- Generator: Adobe Illustrator 22.0.1, SVG Export Plug-In . SVG Version: 6.00 Build 0)  -->
<svg version="1.1" id="Layer_1" xmlns="http://www.w3.org/2000/svg" xmlns:xlink="http://www.w3.org/1999/xlink" x="0px" y="0px"
	 viewBox="0 0 24 24" style="enable-background:new 0 0 24 24;" xml:space="preserve">
<style type="text/css">
	.st0{fill:#02A4EF;}
	.st1{fill:#80BA01;}
	.st2{fill:#F25022;}
	.st3{fill:#C7C7C7;}
	.st4{fill:#CCCCCC;}
</style>
<g>
	<path class="st1" d="M12,0C5.38,0,0,5.38,0,12s5.38,12,12,12s12-5.38,12-12S18.62,0,12,0z M12,22.09c-5.24,0-9.57-4.02-10.05-9.14
		h1.9c0.53,0,0.95-0.43,0.95-0.95s-0.43-0.95-0.95-0.95h-1.9c0.19-2.07,1.02-3.96,2.27-5.48l1.34,1.34C5.75,7.1,6,7.19,6.24,7.19
		S6.73,7.1,6.91,6.91c0.37-0.37,0.37-0.98,0-1.35L5.57,4.22c1.52-1.26,3.41-2.08,5.48-2.27v1.9c0,0.53,0.43,0.95,0.95,0.95
		c0.53,0,0.95-0.43,0.95-0.95v-1.9c2.07,0.19,3.96,1.02,5.48,2.27l-1.34,1.34c-0.37,0.37-0.37,0.98,0,1.35
		c0.19,0.19,0.43,0.28,0.67,0.28c0.24,0,0.49-0.09,0.67-0.28l1.34-1.34c1.26,1.52,2.08,3.41,2.27,5.48h-1.9
		c-0.53,0-0.95,0.43-0.95,0.95s0.43,0.95,0.95,0.95h1.9C21.57,18.07,17.24,22.09,12,22.09z"/>
	<path class="st1" d="M10.44,14.78c-0.6,0.48-0.98,1.21-0.98,2.03c0,1.44,1.16,2.6,2.6,2.6c1.17,0,2.16-0.77,2.48-1.83l2.02-7.53
		L10.44,14.78L10.44,14.78z"/>
</g>
</svg>
