<svg id="Layer_1" data-name="Layer 1" xmlns="http://www.w3.org/2000/svg" viewBox="0 0 40 40"><defs><style>.cls-1{fill:#f25022;}</style></defs><title>AssetLayup</title><path class="cls-1" d="M22,20.62V7.28a4.28,4.28,0,0,0-8.56,0V20.62a8.75,8.75,0,1,0,8.56,0ZM17.75,35.15a6.9,6.9,0,0,1-3-13.14l.53-.25V7.28a2.43,2.43,0,0,1,4.86,0V21.76l.53.25a6.9,6.9,0,0,1-3,13.14Z"/><path class="cls-1" d="M18.68,23.06V15.37a.93.93,0,0,0-1.85,0v7.69a5.27,5.27,0,1,0,1.85,0Z"/><path class="cls-1" d="M30.07,19H26.69a.93.93,0,1,0,0,1.85h3.38a.93.93,0,1,0,0-1.85Z"/><path class="cls-1" d="M30.07,15.16H25.21a.92.92,0,1,0,0,1.84h4.86a.92.92,0,1,0,0-1.84Z"/><path class="cls-1" d="M30.07,11.27H25.21a.93.93,0,1,0,0,1.85h4.86a.93.93,0,1,0,0-1.85Z"/><path class="cls-1" d="M25.21,9.24h4.86a.93.93,0,1,0,0-1.85H25.21a.93.93,0,1,0,0,1.85Z"/></svg>