<svg id="Layer_1" data-name="Layer 1" xmlns="http://www.w3.org/2000/svg" viewBox="0 0 840 80"><defs><style>.cls-1{fill:#c7c7c7;}.cls-2{fill:#f25022;}</style></defs><title>AssetLayup</title><rect class="cls-1" width="1" height="80"/><rect class="cls-1" x="16.78" y="15" width="1" height="50"/><rect class="cls-1" x="33.56" y="15" width="1" height="50"/><rect class="cls-1" x="50.34" y="15" width="1" height="50"/><rect class="cls-1" x="67.12" y="15" width="1" height="50"/><rect class="cls-1" x="83.9" width="1" height="80"/><rect class="cls-1" x="100.68" y="15" width="1" height="50"/><rect class="cls-1" x="117.46" y="15" width="1" height="50"/><rect class="cls-1" x="134.24" y="15" width="1" height="50"/><rect class="cls-1" x="151.02" y="15" width="1" height="50"/><rect class="cls-1" x="167.8" width="1" height="80"/><rect class="cls-1" x="184.58" y="15" width="1" height="50"/><rect class="cls-1" x="201.36" y="15" width="1" height="50"/><rect class="cls-1" x="218.14" y="15" width="1" height="50"/><rect class="cls-1" x="234.92" y="15" width="1" height="50"/><rect class="cls-1" x="251.7" width="1" height="80"/><rect class="cls-1" x="268.48" y="15" width="1" height="50"/><rect class="cls-1" x="285.26" y="15" width="1" height="50"/><rect class="cls-1" x="302.04" y="15" width="1" height="50"/><rect class="cls-1" x="318.82" y="15" width="1" height="50"/><rect class="cls-1" x="335.6" width="1" height="80"/><rect class="cls-1" x="352.38" y="15" width="1" height="50"/><rect class="cls-1" x="369.16" y="15" width="1" height="50"/><rect class="cls-1" x="385.94" y="15" width="1" height="50"/><rect class="cls-1" x="402.72" y="15" width="1" height="50"/><rect class="cls-1" x="419.5" width="1" height="80"/><rect class="cls-1" x="436.28" y="15" width="1" height="50"/><rect class="cls-1" x="453.06" y="15" width="1" height="50"/><rect class="cls-1" x="469.84" y="15" width="1" height="50"/><rect class="cls-1" x="486.62" y="15" width="1" height="50"/><rect class="cls-1" x="503.4" width="1" height="80"/><rect class="cls-1" x="520.18" y="15" width="1" height="50"/><rect class="cls-1" x="536.96" y="15" width="1" height="50"/><rect class="cls-1" x="553.74" y="15" width="1" height="50"/><rect class="cls-1" x="570.52" y="15" width="1" height="50"/><rect class="cls-1" x="587.3" width="1" height="80"/><rect class="cls-1" x="604.08" y="15" width="1" height="50"/><rect class="cls-1" x="620.86" y="15" width="1" height="50"/><rect class="cls-1" x="637.64" y="15" width="1" height="50"/><rect class="cls-1" x="654.42" y="15" width="1" height="50"/><rect class="cls-1" x="671.2" width="1" height="80"/><rect class="cls-1" x="687.98" y="15" width="1" height="50"/><rect class="cls-1" x="704.76" y="15" width="1" height="50"/><rect class="cls-1" x="721.54" y="15" width="1" height="50"/><rect class="cls-1" x="738.32" y="15" width="1" height="50"/><rect class="cls-1" x="755.1" width="1" height="80"/><rect class="cls-1" x="771.88" y="15" width="1" height="50"/><rect class="cls-1" x="788.66" y="15" width="1" height="50"/><rect class="cls-1" x="805.44" y="15" width="1" height="50"/><rect class="cls-1" x="822.22" y="15" width="1" height="50"/><rect class="cls-1" x="839" width="1" height="80"/></svg>
